<?xml version="1.0" standalone="no"?>
<!DOCTYPE svg PUBLIC "-//W3C//DTD SVG 20010904//EN"
 "http://www.w3.org/TR/2001/REC-SVG-20010904/DTD/svg10.dtd">
<svg version="1.0" xmlns="http://www.w3.org/2000/svg"
 width="4501.000000pt" height="4500.000000pt" viewBox="0 0 4501.000000 4500.000000"
 preserveAspectRatio="xMidYMid meet">

<g transform="translate(0.000000,4500.000000) scale(0.100000,-0.100000)"
fill="#000000" stroke="none">
<path d="M0 22500 l0 -22500 22500 0 22500 0 0 22500 0 22500 -22500 0 -22500
0 0 -22500z m25447 8224 c162 -33 302 -111 415 -232 229 -244 278 -603 122
-902 -62 -118 -177 -241 -285 -303 l-37 -21 4 -2701 c3 -1485 9 -2873 14
-3085 13 -500 13 -1097 0 -1330 -68 -1226 -363 -1969 -960 -2417 -88 -66 -168
-112 -197 -113 -25 0 -44 32 -37 64 8 37 55 132 118 239 115 194 234 540 295
857 40 209 44 288 46 855 0 303 7 775 14 1050 10 419 10 693 -3 1689 -10 744
-16 1880 -16 3036 l0 1847 -60 37 c-354 219 -471 697 -258 1061 58 98 202 239
295 288 39 21 91 44 115 53 121 44 286 55 415 28z m1131 -954 c140 -159 257
-360 327 -560 67 -195 90 -353 127 -880 16 -233 14 -4491 -2 -4880 -22 -517
-72 -872 -171 -1229 -116 -413 -307 -790 -542 -1066 -98 -116 -203 -219 -193
-190 4 11 27 97 51 190 130 510 195 990 236 1750 16 289 25 5131 10 5439 -20
409 -73 633 -202 848 l-49 81 44 66 c59 89 99 171 130 266 28 85 56 234 56
298 l0 39 52 -43 c28 -24 85 -82 126 -129z m-2348 -117 c26 -97 95 -244 153
-327 l44 -62 -24 -35 c-43 -63 -111 -213 -142 -314 -85 -279 -95 -523 -61
-1395 5 -129 9 -1329 10 -2666 0 -2112 2 -2474 16 -2760 21 -407 23 -1009 6
-1189 -82 -825 -360 -1308 -912 -1585 -895 -450 -2081 -281 -3210 457 -749
491 -1388 1193 -1726 1898 -493 1029 -567 2271 -200 3387 227 691 572 1249
1082 1749 738 722 1705 1178 2758 1300 417 48 935 30 1249 -43 63 -14 112 -19
169 -16 74 3 82 5 103 32 50 63 64 217 46 506 -11 171 -10 194 8 302 63 363
268 741 537 988 l48 44 12 -96 c7 -54 22 -132 34 -175z m5596 -11914 c295 -49
605 -201 909 -446 111 -89 357 -328 452 -439 l52 -61 -260 -97 c-143 -54 -262
-96 -263 -94 -246 339 -543 541 -909 620 -134 28 -379 31 -510 5 -520 -104
-951 -521 -1083 -1049 -34 -138 -44 -394 -20 -540 44 -269 173 -520 375 -730
116 -122 233 -210 371 -282 209 -108 371 -148 600 -148 330 -1 586 94 865 323
97 79 284 276 321 337 1 2 71 -10 155 -27 l153 -31 185 105 c101 58 186 104
187 102 2 -2 -27 -54 -64 -115 -377 -626 -896 -1042 -1472 -1179 -143 -34
-392 -42 -567 -19 -642 85 -1183 469 -1467 1041 -118 238 -176 447 -196 708
-37 494 122 989 442 1372 418 502 1098 752 1744 644z m-16852 -54 c355 -42
708 -156 913 -296 544 -371 852 -996 812 -1649 -18 -292 -131 -624 -296 -875
-279 -423 -655 -675 -1163 -779 -283 -58 -321 -60 -1020 -61 l-645 0 -3 1838
-2 1837 638 0 c505 0 664 -3 766 -15z m11159 -19 c267 -79 487 -268 599 -513
89 -197 94 -451 12 -645 -78 -187 -254 -372 -458 -484 l-70 -38 224 -217 224
-217 112 216 c62 120 166 318 233 442 l120 225 302 3 c240 2 300 0 296 -10 -3
-7 -154 -294 -336 -638 l-331 -625 173 -173 c94 -96 291 -289 437 -430 146
-141 266 -259 268 -263 3 -7 -369 -359 -381 -359 -4 0 -172 161 -374 358 -201
196 -369 358 -373 360 -4 1 -47 -57 -95 -130 -112 -168 -277 -337 -403 -412
-96 -57 -234 -111 -341 -133 -107 -23 -351 -22 -456 1 -254 55 -464 173 -640
357 -138 145 -232 310 -283 497 -23 87 -26 115 -26 272 0 211 16 285 99 455
106 218 290 399 568 558 26 16 47 31 47 35 0 3 -20 27 -44 52 -56 57 -150 189
-186 260 -55 108 -72 184 -77 336 -5 120 -2 152 16 225 82 331 356 577 727
654 108 23 306 13 417 -19z m-13265 -58 c51 -24 94 -78 119 -151 15 -42 18
-83 18 -212 -1 -143 -3 -166 -24 -220 -53 -135 -179 -195 -314 -149 -58 20
-107 73 -138 150 -21 54 -24 74 -24 224 0 149 3 171 23 223 37 91 85 137 167
158 44 12 124 1 173 -23z m22477 -819 c684 -136 1191 -770 1162 -1454 -9 -209
-53 -380 -148 -570 -200 -400 -572 -687 -1012 -782 -117 -26 -418 -25 -537 1
-427 93 -782 369 -983 763 -115 226 -151 376 -151 628 1 135 5 191 22 271 65
304 194 546 402 754 338 338 789 479 1245 389z m-16555 -3 c240 -55 467 -170
648 -330 337 -296 515 -718 495 -1168 l-6 -118 -1143 0 c-666 0 -1144 -4
-1144 -9 0 -23 45 -152 72 -206 66 -131 150 -232 262 -317 321 -243 725 -253
1060 -25 124 84 252 239 307 372 l23 55 258 0 c200 0 258 -3 258 -12 0 -7 -21
-60 -46 -117 -208 -482 -606 -825 -1074 -927 -116 -25 -379 -26 -502 -1 -179
36 -361 112 -523 218 -105 69 -315 279 -384 384 -99 152 -178 338 -216 515
-24 113 -30 363 -11 485 41 270 167 537 350 745 213 241 504 408 811 465 102
18 409 13 505 -9z m-5780 -1401 l0 -1365 -255 0 -255 0 0 1365 0 1365 255 0
255 0 0 -1365z m8090 371 c228 -542 417 -982 419 -980 7 7 672 1552 800 1862
l43 102 275 0 c219 0 274 -3 270 -13 -4 -12 -981 -2317 -1092 -2577 l-53 -125
-231 -3 -230 -2 -15 27 c-7 16 -97 224 -199 463 -102 239 -355 833 -562 1320
-208 487 -380 891 -382 898 -4 9 54 12 268 12 l274 0 415 -984z"/>
<path d="M22670 27534 c-507 -34 -1108 -138 -1463 -254 -950 -309 -1774 -1015
-2218 -1902 -198 -394 -313 -778 -376 -1253 -25 -187 -25 -755 0 -940 123
-919 486 -1665 1117 -2295 672 -672 1578 -1104 2453 -1171 282 -21 565 22 764
116 210 99 313 201 532 527 100 149 114 181 101 229 -20 69 -25 69 -231 35
-311 -53 -411 -61 -789 -61 -288 0 -381 3 -490 18 -554 75 -1002 237 -1395
505 -159 109 -234 170 -384 316 -502 491 -789 1079 -888 1822 -23 180 -23 589
1 769 29 219 93 506 141 635 62 166 82 215 121 301 362 806 1132 1434 2046
1668 312 80 542 106 873 98 247 -6 357 -19 575 -69 175 -40 295 -44 357 -11
94 50 119 153 102 413 -14 206 -23 255 -57 305 -55 79 -182 144 -342 174 -132
25 -375 36 -550 25z"/>
<path d="M22280 26084 c-456 -55 -833 -188 -1186 -420 -590 -387 -954 -965
-1060 -1679 -26 -171 -26 -542 -1 -720 22 -155 81 -393 132 -531 83 -225 226
-482 372 -665 297 -372 748 -671 1228 -813 257 -76 457 -106 760 -113 356 -8
586 28 783 123 112 54 212 147 254 234 39 82 61 213 62 370 0 162 -17 235 -69
287 -52 52 -88 47 -237 -31 -295 -155 -547 -214 -873 -203 -473 16 -895 197
-1195 514 -113 119 -190 228 -265 376 -296 586 -247 1303 122 1805 325 442
906 713 1473 689 237 -10 401 -50 625 -152 160 -72 200 -85 270 -85 59 0 107
25 130 69 27 54 16 294 -21 451 -53 219 -202 355 -464 424 -200 53 -319 68
-570 71 -129 2 -251 1 -270 -1z"/>
<path d="M22355 24689 c-337 -43 -631 -230 -766 -485 -16 -31 -43 -72 -59 -90
-44 -51 -76 -111 -102 -194 -21 -68 -23 -93 -22 -265 0 -171 3 -199 26 -285
86 -319 314 -596 601 -730 168 -79 370 -112 562 -92 445 47 786 317 925 732
132 392 36 813 -250 1098 -245 246 -567 355 -915 311z"/>
<path d="M12118 17195 c-5 -5 -8 -606 -8 -1337 l0 -1328 294 0 c605 0 869 46
1156 203 121 66 256 197 352 342 220 330 299 683 233 1034 -22 115 -49 191
-115 326 -77 160 -160 273 -291 400 -98 94 -120 110 -221 159 -184 90 -375
142 -658 181 -126 17 -730 33 -742 20z"/>
<path d="M23763 17166 c-94 -30 -186 -105 -226 -181 -12 -25 -22 -67 -25 -111
-9 -136 38 -229 202 -400 109 -114 100 -112 249 -40 168 82 260 178 293 308
44 172 -29 324 -195 405 -48 24 -70 28 -156 30 -64 2 -115 -2 -142 -11z"/>
<path d="M23582 15730 c-121 -66 -193 -119 -277 -204 -84 -86 -129 -153 -173
-258 -24 -57 -27 -75 -26 -183 0 -103 4 -129 26 -187 106 -282 367 -444 652
-408 219 28 410 191 585 502 l32 56 -361 359 c-199 197 -367 359 -373 360 -7
2 -45 -15 -85 -37z"/>
<path d="M32896 16303 c-150 -32 -288 -107 -408 -221 -302 -288 -390 -738
-217 -1101 125 -264 365 -456 638 -513 120 -25 295 -20 414 11 259 68 476 261
587 520 62 145 75 213 75 401 0 187 -11 240 -75 377 -125 267 -340 451 -608
519 -112 28 -293 32 -406 7z"/>
<path d="M16399 16320 c-325 -41 -591 -244 -707 -540 -16 -41 -32 -87 -36
-102 l-6 -28 870 0 871 0 -7 23 c-53 173 -115 278 -234 397 -132 132 -271 207
-441 238 -83 16 -236 22 -310 12z"/>
</g>
</svg>
