<?xml version="1.0" encoding="utf-8"?>
<!-- Generator: Adobe Illustrator 25.2.1, SVG Export Plug-In . SVG Version: 6.00 Build 0)  -->
<svg version="1.1" id="Layer_1" xmlns="http://www.w3.org/2000/svg" xmlns:xlink="http://www.w3.org/1999/xlink" x="0px" y="0px"
	 viewBox="0 0 1080 1080" style="enable-background:new 0 0 1080 1080;" xml:space="preserve">
<style type="text/css">
	.st0{fill:#04E6FF;}
	.st1{fill:#000026;}
	.st2{fill:#FFFFFF;}
</style>
<g>
	<g>
		<path id="XMLID_327_" class="st0" d="M614.35,327.34c-0.01-16.53-1.37-32.93-1.16-49.42c0.18-14.13,2.67-28.82,10.9-40.48
			c-4.77-6.01-8.13-13.19-9.6-21.04c-0.31-1.67-0.51-3.38-0.64-5.1c-0.06-0.69-0.07-1.39-0.1-2.09c-0.01-0.21-0.02-0.42-0.03-0.62
			c-14.51,12.42-24.41,30.3-26.51,49.32c-0.66,5.95,3.49,30.58-3.41,32.43c-2.99,0.8-5.9,0.53-8.91-0.28
			c-3.19-0.87-6.49-1.39-9.77-1.81c-72.17-9.27-148.47,23.94-189.78,83.99c-39.52,57.44-45.11,136.51-14.08,198.94
			C394.97,639.01,494.68,708,572.39,673.3c56.96-25.44,42-97.36,42.01-147.76C614.41,459.47,614.41,393.41,614.35,327.34z
			 M586.52,620.31c-0.44,0.98-1.21,1.8-1.81,2.72c0,0,0,0.01-0.01,0.01c-9.54,14.57-16.11,25.04-34.9,29.53
			c-13.49,3.23-27.68,2.07-41.27-0.71c-51.44-10.52-97.54-45.2-121.3-92.02c-23.75-46.83-24.4-104.86-1.08-151.9
			c20.34-41.03,58.62-72.73,102.61-85.37c14.39-4.13,99.52-22.29,99.39,5.7c-0.03,6.82,3.81,21.99-4.53,25.21
			c-4.47,1.73-9.47,0.39-14.14-0.71c-9.11-2.16-18.41-3.26-27.73-3.37c-44.66-0.54-89.65,21.54-115.02,58.53
			c-30.67,44.71-30.68,108.32-0.04,153.04c35.99,52.53,96.38,64.05,155.09,52.93c1.61-0.3,3.47-1,4.62,0.7
			C587.6,616.36,587.38,618.42,586.52,620.31z M587.78,572.14c-5.28,23.62-47.87,21.38-65.88,18.37
			c-26.55-4.43-51.74-18.32-68.41-39.62c-14.74-18.83-22.26-42.71-22.37-66.59c-0.09-21.14,5.64-42.29,17.31-59.95
			c24.86-37.6,74.86-56.56,118.41-44.9c0.01,0,0.03,0.01,0.05,0.01c12.25,3.29,18.71,8.86,20.87,21.26
			c0.54,3.09,1.99,14.94,0.23,17.33c-5.05,6.85-15.54-0.77-22.68-3.45c-31.29-11.73-69.9,0.82-88.31,28.71
			c-18.41,27.89-14.77,68.32,8.31,92.48c23.09,24.17,63.32,29.63,92.01,12.51c1.62-0.96,3.32-2.02,5.2-2.01
			C591.63,546.35,588.9,567.11,587.78,572.14z M586.95,483.58c-0.08,13.2-5.51,26.43-15.3,35.34c-14.4,13.1-37.18,15.93-54.4,6.85
			c-11.16-5.88-19.5-16.51-23.32-28.46c-3.11-9.78-4.09-28.25,4.6-35.83c0.49-0.43,0.69-1.21,1-1.85
			c9.3-19.57,36.12-26.95,55.66-20.33c12.51,4.23,23.03,13.98,28.2,26.13C585.84,471.17,586.99,477.37,586.95,483.58z
			 M736.02,257.49c-1.93-19.34-11-37.19-25.99-49.56c-0.03,2.41-0.25,4.77-0.64,7.08c-0.01,0.07-0.02,0.13-0.03,0.2
			c-0.04,0.25-0.06,0.51-0.1,0.75c-1.4,7.89-4.71,15.12-9.44,21.19c0.98,1.32,1.88,2.68,2.71,4.1c8.47,14.49,8.71,32.17,8.72,48.96
			c0.02,56.83,0.03,113.66,0.05,170.49c0.02,47.2-0.08,95.21-13.63,140.43c0.24-0.24,0.47-0.47,0.71-0.7
			c4.08-4.08,7.95-8.36,11.44-12.94c13.46-17.69,20.88-39.37,24.53-61.3c3.64-21.93,3.71-44.27,3.77-66.5
			c0-29.75,0.16-59.51,0.24-89.26C738.46,332.61,739.79,295.22,736.02,257.49z M695.37,201.82c-0.03-0.18-0.04-0.36-0.07-0.53
			c-0.18-1.04-0.42-2.07-0.7-3.08c-0.72-0.34-1.45-0.66-2.19-0.98c-1.2-0.51-2.41-0.99-3.64-1.44v-0.01
			c-17.12-6.29-36.55-6.48-53.62,0.01c-0.86,0.33-1.71,0.67-2.56,1.03c-0.12,0.05-0.23,0.1-0.35,0.15
			c-1.09,0.47-2.17,0.97-3.23,1.51c-0.23,0.82-0.42,1.65-0.58,2.5c-0.22,1.18-0.36,2.38-0.45,3.6c-0.04,0.49-0.05,0.98-0.07,1.48
			c-0.02,0.4-0.06,0.8-0.06,1.2c0,0.04,0.01,0.07,0.01,0.1c0,0.03-0.01,0.06-0.01,0.09c0,0.41,0.04,0.81,0.06,1.21
			c0.02,0.5,0.03,0.99,0.07,1.48c0.09,1.22,0.23,2.42,0.45,3.6c0.92,4.92,2.9,9.48,5.7,13.41c0.93-0.69,1.89-1.34,2.87-1.96
			c0.44-0.28,0.88-0.55,1.33-0.81c8.52-4.98,18.63-7.3,28.46-6.27c3.75,0.39,7.43,1.27,10.96,2.57c0.19,0.07,0.39,0.14,0.59,0.23
			c2.82,1.07,5.54,2.42,8.11,4.01v0.01c0.37,0.21,0.73,0.44,1.09,0.68c0.71,0.46,1.4,0.94,2.08,1.43c2.82-3.99,4.8-8.62,5.68-13.61
			c0.03-0.17,0.04-0.35,0.07-0.53c0.01-0.05,0.02-0.1,0.02-0.14c0.29-1.73,0.45-3.5,0.45-5.31v-0.19c0-1.8-0.16-3.57-0.45-5.3
			C695.39,201.91,695.38,201.87,695.37,201.82z"/>
		<path id="XMLID_12_" class="st2" d="M690.68,210.52c-0.4,2.94-1.18,5.84-1.51,8.78c-0.26,2.31-1.25,4.04-2.72,5.62
			c-0.26,0.29-0.55,0.59-0.85,0.85c-2.39,2.24-4.59,4.56-6.06,7.24l-0.04,0.04c-4.92,3.2-10.8,5.07-17.08,5.07
			c-6.25,0-12.05-1.84-16.94-4.96c-2.98-2.5-5.18-5.51-7.16-8.78c-0.22-0.33-0.4-0.7-0.62-1.07c-0.07-0.11-0.22-0.18-0.29-0.33
			c-0.99-1.62-2.39-3.12-2.87-4.92c-0.85-2.98-1.14-6.1-1.51-8.38c0.26-2.9,0.62-5,0.59-7.05c-0.07-2.61,0.51-4.81,1.51-6.8
			c2.02-4.12,5.69-7.27,8.45-10.95c0.33-0.44,1.03-0.59,1.58-0.81c3.86-1.54,7.68-3.2,11.65-4.52c3.86-1.29,7.83-1.76,11.76,0.04
			c2.31,1.03,4.52,2.5,6.94,2.98c5.69,1.14,8.05,6.28,11.98,9.52c0.7,0.59,0.77,1.91,1.1,2.9c0.07,0.29,0.15,0.51,0.18,0.81v0.04
			c0.18,0.66,0.33,1.32,0.55,1.95C690.72,201.92,691.23,206.19,690.68,210.52z"/>
		<path class="st1" d="M695.84,207.26v0.19c0,1.81-0.16,3.58-0.45,5.31c0,0.04-0.01,0.09-0.02,0.14c-0.03,0.18-0.04,0.36-0.07,0.53
			c-0.88,4.99-2.86,9.62-5.68,13.61c-3.05,4.35-7.11,7.96-11.84,10.47c0.02,5.02,0.03,10.25,0.04,15.49
			c-5,1.76-10.37,2.72-15.97,2.72c-5.32,0-10.43-0.86-15.2-2.45c0.01-6.2,0-11.45-0.01-15.38c-5-2.5-9.3-6.21-12.51-10.74
			c-2.8-3.93-4.78-8.49-5.7-13.41c-0.22-1.18-0.36-2.38-0.45-3.6c-0.04-0.49-0.05-0.98-0.07-1.48c-0.02-0.4-0.06-0.8-0.06-1.21
			c0-0.03,0.01-0.06,0.01-0.09c0-0.03-0.01-0.06-0.01-0.1c0-0.4,0.04-0.8,0.06-1.2c0.02-0.5,0.03-0.99,0.07-1.48
			c0.09-1.22,0.23-2.42,0.45-3.6c0.16-0.85,0.35-1.68,0.58-2.5c3.86-14.54,17.09-25.25,32.84-25.25c15.64,0,28.8,10.59,32.75,24.98
			c0.28,1.01,0.52,2.04,0.7,3.08c0.03,0.17,0.04,0.35,0.07,0.53c0.01,0.05,0.02,0.09,0.02,0.14
			C695.68,203.69,695.84,205.46,695.84,207.26z"/>
		<path class="st2" d="M695.84,207.26v0.19c0,1.81-0.16,3.58-0.45,5.31c0,0.04-0.01,0.09-0.02,0.14c-0.03,0.18-0.04,0.36-0.07,0.53
			c-0.88,4.99-2.86,9.62-5.68,13.61c-3.05,4.35-7.11,7.96-11.84,10.47c-4.75,2.54-10.17,3.97-15.93,3.97
			c-5.47,0-10.64-1.29-15.21-3.59c-5-2.5-9.3-6.21-12.51-10.74c-2.8-3.93-4.78-8.49-5.7-13.41c-0.22-1.18-0.36-2.38-0.45-3.6
			c-0.04-0.49-0.05-0.98-0.07-1.48c-0.02-0.4-0.06-0.8-0.06-1.21c0-0.03,0.01-0.06,0.01-0.09c0-0.03-0.01-0.06-0.01-0.1
			c0-0.4,0.04-0.8,0.06-1.2c0.02-0.5,0.03-0.99,0.07-1.48c0.09-1.22,0.23-2.42,0.45-3.6c0.16-0.85,0.35-1.68,0.58-2.5
			c3.86-14.54,17.09-25.25,32.84-25.25c15.64,0,28.8,10.59,32.75,24.98c0.28,1.01,0.52,2.04,0.7,3.08c0.03,0.17,0.04,0.35,0.07,0.53
			c0.01,0.05,0.02,0.09,0.02,0.14C695.68,203.69,695.84,205.46,695.84,207.26z"/>
		<path class="st2" d="M693.88,206.7c0,7.09-2.36,13.63-6.32,18.89c-0.01,0.01-0.01,0.01-0.02,0.02c-2.23,2.93-4.92,5.45-7.99,7.4
			l-0.04,0.04c-0.04,0.08-0.08,0.11-0.12,0.08c-0.42-0.24-0.77-5.82-1.05-12.22c-0.4-9.43-0.63-20.64-0.63-19.13
			c0,0.21,0.02,7.87,0.04,18.9c0.01,4.08,0.02,8.62,0.03,13.42c0,1.12,0.01,2.26,0,3.41c0.02,5.02,0.03,10.25,0.04,15.49
			c0.05,25.57,0.11,51.11,0.11,51.11c0,51.43,0,102.87,0.04,154.31c0,47.84,5.84,101.05-8.78,147.34
			c-3.97,12.53-10.04,24.54-18.49,34.69c-4.04,4.81-8.59,9.25-13.7,12.97c-1.8,1.32-8.3,6.94-10.29,4.22
			c-1.69-2.31,5.95-13.23,7.13-15.84c5.25-11.39,9.04-23.47,11.24-35.82c3.2-18.08,0.7-35.6,1.51-53.61
			c2.31-51.21,0.04-103.1,0.04-154.39c0,0,0.04-98.65,0.02-144.71c0.01-6.2,0-11.45-0.01-15.38c0.01-1.56,0.01-2.91,0-4.03
			c0-2.35,0-3.68-0.01-3.77c-0.11-1.25-0.29,3.44-1.06,3.12c-0.03-0.01-0.06-0.03-0.08-0.05c-3.31-2.1-6.17-4.81-8.49-7.97v-0.01
			c-3.79-5.18-6.03-11.57-6.03-18.48c0-3.45,0.55-6.76,1.62-9.85v-0.03c4.15-12.53,15.91-21.57,29.84-21.57
			c14.03,0,25.94,9.22,29.98,21.97v0.04C693.36,200.23,693.88,203.39,693.88,206.7z"/>
	</g>
	<g>
		<path class="st2" d="M27.05,745.3c-7.38,0-11.07,5.57-11.07,16.71c0,11.29,3.69,16.93,11.07,16.93c7.52,0,11.28-5.64,11.28-16.93
			C38.33,750.87,34.57,745.3,27.05,745.3z M15.98,784.15v118.72h22.35V784.15H15.98z"/>
		<path class="st0" d="M197.09,803.25c-1.66-6.51-4.05-12.66-7.16-18.45c-3.11-5.78-6.95-11.18-11.5-16.17
			c-4.56-4.99-9.66-9.36-15.3-13.13c-7.53-4.63-15.92-7.99-25.18-10.09c-9.26-2.1-18.16-3.15-26.7-3.15H62.86v160.61h48.39
			c8.39,0,17.26-1.05,26.59-3.15c9.33-2.1,17.76-5.46,25.29-10.09c5.64-3.62,10.7-7.92,15.19-12.91c4.48-5,8.28-10.35,11.39-16.06
			c3.11-5.72,5.54-11.8,7.27-18.24c1.74-6.43,2.61-12.91,2.61-19.42C199.59,816.35,198.75,809.76,197.09,803.25z M170.07,848.28
			c-4.05,8.47-9.41,15.45-16.06,20.95c-6.8,4.63-14.11,7.7-21.92,9.22s-15.99,2.28-24.53,2.28H86.51V764.4h17.58
			c8.1,0,16.46,0.87,25.07,2.61c8.61,1.73,16.17,4.48,22.68,8.24c7.38,5.5,13.27,12.45,17.69,20.84c4.41,8.39,6.62,17.14,6.62,26.26
			C176.15,831.17,174.12,839.82,170.07,848.28z"/>
		<path class="st0" d="M335.88,820.5c-3.18-7.74-7.59-14.5-13.24-20.29c-5.64-5.78-12.26-10.42-19.86-13.89
			c-7.59-3.47-15.73-5.21-24.41-5.21c-8.39,0-16.28,1.71-23.66,5.1c-7.38,3.4-13.85,7.96-19.42,13.67
			c-5.57,5.72-9.99,12.34-13.24,19.86c-3.26,7.53-4.89,15.49-4.89,23.88s1.59,16.35,4.78,23.87c3.18,7.53,7.56,14.11,13.13,19.75
			c5.57,5.65,12.08,10.13,19.53,13.46c7.45,3.33,15.45,4.99,23.98,4.99c6.52,0,12.88-1.16,19.1-3.47
			c6.22-2.31,11.94-5.54,17.15-9.66c5.21-4.12,9.84-9.08,13.89-14.87c4.05-5.78,7.3-12.22,9.77-19.32H315.7
			c-1.45,4.06-3.47,7.71-6.08,10.97c-2.6,3.25-5.57,6-8.9,8.24c-3.33,2.25-6.91,3.95-10.74,5.1c-3.84,1.16-7.7,1.74-11.61,1.74
			c-4.49,0-8.87-0.83-13.13-2.5c-4.27-1.66-8.11-3.9-11.51-6.72c-3.4-2.82-6.29-6.19-8.68-10.09c-2.38-3.91-3.94-8.04-4.66-12.38
			h100.05v-6.29c0-0.43,0.03-0.76,0.11-0.98c0.07-0.21,0.11-0.46,0.11-0.76C340.66,836.31,339.06,828.25,335.88,820.5z
			 M240.82,831.9c2.17-8.97,6.69-16.13,13.57-21.49c6.87-5.35,14.93-8.03,24.19-8.03c9.56,0,17.73,2.68,24.53,8.03
			c6.8,5.36,11.36,12.52,13.67,21.49H240.82z"/>
		<path class="st0" d="M446.57,784.15c-3.48,8.39-7.2,17.25-11.18,26.59c-3.98,9.33-7.85,18.34-11.61,27.02
			c-2.46,5.93-4.81,11.43-7.05,16.49c-2.25,5.07-4.6,10.5-7.06,16.28l-36.46-86.38h-23.87l50.57,118.72h20.4l50.35-118.72H446.57z"
			/>
		<path class="st2" d="M679.88,881.17c-3.77-3.62-7.31-7.09-10.64-10.42c-3.18-3.04-6.22-6-9.11-8.9c-2.9-2.89-5.79-5.79-8.69-8.68
			l29.52-55.78h-26.04c-3.33,6.07-6.77,12.48-10.31,19.21c-3.55,6.72-6.99,13.35-10.31,19.86c-2.03-2.03-3.77-3.77-5.21-5.21
			c-1.45-1.45-3.11-3.04-4.99-4.78c-1.74-1.59-3.37-3.15-4.89-4.66c-1.52-1.52-3.07-3.08-4.66-4.67c3.47-1.59,6.76-3.58,9.87-5.97
			c3.11-2.39,5.86-5.1,8.25-8.14c2.39-3.04,4.27-6.36,5.64-9.98c1.38-3.62,2.07-7.45,2.07-11.5c0-5.5-1.09-10.64-3.26-15.41
			c-2.17-4.78-5.1-8.9-8.79-12.38c-3.69-3.47-7.92-6.21-12.7-8.24c-4.77-2.03-9.76-3.04-14.97-3.04s-10.24,0.91-15.09,2.71
			c-4.85,1.81-9.15,4.38-12.91,7.71c-3.76,3.33-6.77,7.27-9.01,11.82c-2.24,4.56-3.36,9.59-3.36,15.09c0,6.51,1.3,12.12,3.91,16.82
			c2.6,4.7,6,9.15,10.2,13.35c-4.49,2.31-8.65,4.95-12.48,7.92c-3.84,2.97-7.2,6.29-10.1,9.98c-2.89,3.69-5.17,7.82-6.83,12.37
			c-1.67,4.56-2.5,9.66-2.5,15.3c0,6.95,1.41,13.46,4.24,19.54c2.82,6.08,6.58,11.36,11.28,15.84c4.7,4.49,10.16,8.03,16.39,10.63
			c6.21,2.61,12.73,3.91,19.53,3.91c5.79,0,10.96-0.76,15.52-2.28c4.55-1.52,8.71-3.65,12.48-6.4c3.76-2.75,7.12-6,10.09-9.77
			c2.96-3.76,5.75-7.88,8.36-12.37l32.98,32.12l16.72-15.84C687.04,888.04,683.64,884.78,679.88,881.17z M588.83,768.96
			c3.4-2.75,7.27-4.13,11.61-4.13c4.48,0,8.39,1.42,11.72,4.24c3.33,2.82,4.99,6.55,4.99,11.17c0,2.9-0.58,5.4-1.73,7.49
			c-1.16,2.1-2.65,3.94-4.45,5.54c-1.81,1.59-3.91,2.96-6.3,4.12c-2.39,1.16-4.81,2.17-7.27,3.04c-3.33-2.89-6.44-6.15-9.33-9.77
			c-2.9-3.61-4.34-7.3-4.34-11.07C583.73,775.25,585.43,771.71,588.83,768.96z M617.48,867.17c-1.96,2.96-4.13,5.61-6.51,7.92
			c-2.39,2.31-5.1,4.2-8.14,5.64c-3.04,1.45-6.44,2.17-10.2,2.17c-3.62,0-7.06-0.69-10.31-2.06c-3.26-1.37-6.08-3.26-8.47-5.64
			c-2.38-2.39-4.3-5.21-5.75-8.47c-1.44-3.25-2.17-6.69-2.17-10.31c0-3.47,0.73-6.72,2.17-9.77c1.45-3.03,3.33-5.82,5.65-8.35
			c2.31-2.53,4.99-4.81,8.03-6.84c3.03-2.02,6.07-3.69,9.11-4.99l32.12,31.69C621.28,861.2,619.43,864.2,617.48,867.17z"/>
		<path class="st2" d="M912.53,856.86l-13.45-2.61c-6.51,8.68-14.11,15.7-22.79,21.05c-8.68,5.36-18.31,8.03-28.87,8.03
			c-8.1,0-15.77-1.62-23-4.88c-7.24-3.25-13.61-7.67-19.1-13.24c-5.5-5.57-9.84-11.97-13.02-19.2c-3.19-7.24-4.78-14.91-4.78-23.01
			s1.55-15.84,4.67-23.22c3.11-7.38,7.38-13.86,12.8-19.43c5.43-5.57,11.75-10.01,18.99-13.34s14.98-5,23.23-5
			c9.98,0,19.53,2.5,28.64,7.49c9.12,4.99,16.72,11.97,22.79,20.95l22.57-8.47c-5.06-5.93-10.38-11.47-15.95-16.6
			c-5.57-5.14-11.39-9.62-17.47-13.46c-6.08-3.83-12.48-6.84-19.21-9.01c-6.73-2.16-13.78-3.25-21.16-3.25
			c-11.72,0-22.65,2.13-32.77,6.4c-10.13,4.27-18.92,10.13-26.37,17.58c-7.45,7.46-13.35,16.24-17.69,26.37s-6.51,21.05-6.51,32.77
			c0,11.58,2.2,22.43,6.62,32.56c4.41,10.13,10.42,18.92,18.01,26.37c7.6,7.45,16.46,13.31,26.59,17.58
			c10.13,4.26,20.91,6.4,32.34,6.4c7.81,0,15.52-1.41,23.11-4.23c7.6-2.82,14.94-6.76,22.03-11.83
			c7.09-5.06,13.67-11.18,19.75-18.34c6.08-7.16,11.5-15.08,16.28-23.77L912.53,856.86z"/>
		<path class="st2" d="M1059.03,819.53c-3.33-7.53-7.81-14.14-13.46-19.86c-5.64-5.72-12.26-10.24-19.86-13.57
			c-7.59-3.32-15.59-4.99-23.98-4.99c-8.68,0-16.75,1.71-24.2,5.1c-7.45,3.4-13.96,8-19.53,13.78c-5.57,5.79-9.91,12.52-13.02,20.19
			c-3.12,7.67-4.67,15.7-4.67,24.09c0,8.25,1.66,16.1,4.99,23.55c3.33,7.45,7.78,13.99,13.35,19.64
			c5.57,5.64,12.08,10.09,19.53,13.35c7.45,3.25,15.3,4.88,23.55,4.88c8.39,0,16.39-1.66,23.98-4.99
			c7.6-3.33,14.22-7.85,19.86-13.57c5.65-5.71,10.13-12.33,13.46-19.86c3.33-7.52,4.99-15.48,4.99-23.87
			S1062.36,827.05,1059.03,819.53z M1038.74,858.81c-1.96,5.07-4.71,9.52-8.25,13.35c-3.55,3.83-7.74,6.83-12.59,9.01
			c-4.85,2.16-10.17,3.25-15.95,3.25c-5.5,0-10.64-1.09-15.41-3.25c-4.78-2.18-8.97-5.11-12.59-8.79
			c-3.62-3.69-6.44-7.96-8.46-12.81c-2.03-4.85-3.04-10.02-3.04-15.52c0-5.64,1.01-10.96,3.04-15.95c2.02-4.99,4.77-9.4,8.24-13.24
			c3.48-3.83,7.64-6.87,12.48-9.11c4.85-2.25,10.1-3.37,15.74-3.37c5.5,0,10.67,1.08,15.52,3.26c4.84,2.17,9.04,5.1,12.58,8.79
			c3.55,3.69,6.37,7.96,8.47,12.8c2.09,4.85,3.15,10.02,3.15,15.52C1041.67,848.39,1040.69,853.75,1038.74,858.81z"/>
	</g>
</g>
</svg>
